<svg xmlns="http://www.w3.org/2000/svg" viewBox="0 0 100 100" preserveAspectRatio="xMidYMid" width="200" height="200" style="shape-rendering: auto; display: block; background: transparent;" xmlns:xlink="http://www.w3.org/1999/xlink"><g><g transform="rotate(0 50 50)">
  <rect x="47" y="11.5" rx="3" ry="3.5100000000000002" width="6" height="13" fill="#0071fc">
    <animate attributeName="opacity" values="1;0" keyTimes="0;1" dur="1.0869565217391304s" begin="-1.0297482837528604s" repeatCount="indefinite"></animate>
  </rect>
</g><g transform="rotate(18.94736842105263 50 50)">
  <rect x="47" y="11.5" rx="3" ry="3.5100000000000002" width="6" height="13" fill="#0071fc">
    <animate attributeName="opacity" values="1;0" keyTimes="0;1" dur="1.0869565217391304s" begin="-0.9725400457665904s" repeatCount="indefinite"></animate>
  </rect>
</g><g transform="rotate(37.89473684210526 50 50)">
  <rect x="47" y="11.5" rx="3" ry="3.5100000000000002" width="6" height="13" fill="#0071fc">
    <animate attributeName="opacity" values="1;0" keyTimes="0;1" dur="1.0869565217391304s" begin="-0.9153318077803203s" repeatCount="indefinite"></animate>
  </rect>
</g><g transform="rotate(56.8421052631579 50 50)">
  <rect x="47" y="11.5" rx="3" ry="3.5100000000000002" width="6" height="13" fill="#0071fc">
    <animate attributeName="opacity" values="1;0" keyTimes="0;1" dur="1.0869565217391304s" begin="-0.8581235697940504s" repeatCount="indefinite"></animate>
  </rect>
</g><g transform="rotate(75.78947368421052 50 50)">
  <rect x="47" y="11.5" rx="3" ry="3.5100000000000002" width="6" height="13" fill="#0071fc">
    <animate attributeName="opacity" values="1;0" keyTimes="0;1" dur="1.0869565217391304s" begin="-0.8009153318077803s" repeatCount="indefinite"></animate>
  </rect>
</g><g transform="rotate(94.73684210526316 50 50)">
  <rect x="47" y="11.5" rx="3" ry="3.5100000000000002" width="6" height="13" fill="#0071fc">
    <animate attributeName="opacity" values="1;0" keyTimes="0;1" dur="1.0869565217391304s" begin="-0.7437070938215102s" repeatCount="indefinite"></animate>
  </rect>
</g><g transform="rotate(113.6842105263158 50 50)">
  <rect x="47" y="11.5" rx="3" ry="3.5100000000000002" width="6" height="13" fill="#0071fc">
    <animate attributeName="opacity" values="1;0" keyTimes="0;1" dur="1.0869565217391304s" begin="-0.6864988558352403s" repeatCount="indefinite"></animate>
  </rect>
</g><g transform="rotate(132.6315789473684 50 50)">
  <rect x="47" y="11.5" rx="3" ry="3.5100000000000002" width="6" height="13" fill="#0071fc">
    <animate attributeName="opacity" values="1;0" keyTimes="0;1" dur="1.0869565217391304s" begin="-0.6292906178489702s" repeatCount="indefinite"></animate>
  </rect>
</g><g transform="rotate(151.57894736842104 50 50)">
  <rect x="47" y="11.5" rx="3" ry="3.5100000000000002" width="6" height="13" fill="#0071fc">
    <animate attributeName="opacity" values="1;0" keyTimes="0;1" dur="1.0869565217391304s" begin="-0.5720823798627002s" repeatCount="indefinite"></animate>
  </rect>
</g><g transform="rotate(170.52631578947367 50 50)">
  <rect x="47" y="11.5" rx="3" ry="3.5100000000000002" width="6" height="13" fill="#0071fc">
    <animate attributeName="opacity" values="1;0" keyTimes="0;1" dur="1.0869565217391304s" begin="-0.5148741418764302s" repeatCount="indefinite"></animate>
  </rect>
</g><g transform="rotate(189.47368421052633 50 50)">
  <rect x="47" y="11.5" rx="3" ry="3.5100000000000002" width="6" height="13" fill="#0071fc">
    <animate attributeName="opacity" values="1;0" keyTimes="0;1" dur="1.0869565217391304s" begin="-0.45766590389016015s" repeatCount="indefinite"></animate>
  </rect>
</g><g transform="rotate(208.42105263157896 50 50)">
  <rect x="47" y="11.5" rx="3" ry="3.5100000000000002" width="6" height="13" fill="#0071fc">
    <animate attributeName="opacity" values="1;0" keyTimes="0;1" dur="1.0869565217391304s" begin="-0.40045766590389015s" repeatCount="indefinite"></animate>
  </rect>
</g><g transform="rotate(227.3684210526316 50 50)">
  <rect x="47" y="11.5" rx="3" ry="3.5100000000000002" width="6" height="13" fill="#0071fc">
    <animate attributeName="opacity" values="1;0" keyTimes="0;1" dur="1.0869565217391304s" begin="-0.34324942791762014s" repeatCount="indefinite"></animate>
  </rect>
</g><g transform="rotate(246.31578947368422 50 50)">
  <rect x="47" y="11.5" rx="3" ry="3.5100000000000002" width="6" height="13" fill="#0071fc">
    <animate attributeName="opacity" values="1;0" keyTimes="0;1" dur="1.0869565217391304s" begin="-0.2860411899313501s" repeatCount="indefinite"></animate>
  </rect>
</g><g transform="rotate(265.2631578947368 50 50)">
  <rect x="47" y="11.5" rx="3" ry="3.5100000000000002" width="6" height="13" fill="#0071fc">
    <animate attributeName="opacity" values="1;0" keyTimes="0;1" dur="1.0869565217391304s" begin="-0.22883295194508008s" repeatCount="indefinite"></animate>
  </rect>
</g><g transform="rotate(284.2105263157895 50 50)">
  <rect x="47" y="11.5" rx="3" ry="3.5100000000000002" width="6" height="13" fill="#0071fc">
    <animate attributeName="opacity" values="1;0" keyTimes="0;1" dur="1.0869565217391304s" begin="-0.17162471395881007s" repeatCount="indefinite"></animate>
  </rect>
</g><g transform="rotate(303.1578947368421 50 50)">
  <rect x="47" y="11.5" rx="3" ry="3.5100000000000002" width="6" height="13" fill="#0071fc">
    <animate attributeName="opacity" values="1;0" keyTimes="0;1" dur="1.0869565217391304s" begin="-0.11441647597254004s" repeatCount="indefinite"></animate>
  </rect>
</g><g transform="rotate(322.10526315789474 50 50)">
  <rect x="47" y="11.5" rx="3" ry="3.5100000000000002" width="6" height="13" fill="#0071fc">
    <animate attributeName="opacity" values="1;0" keyTimes="0;1" dur="1.0869565217391304s" begin="-0.05720823798627002s" repeatCount="indefinite"></animate>
  </rect>
</g><g transform="rotate(341.05263157894734 50 50)">
  <rect x="47" y="11.5" rx="3" ry="3.5100000000000002" width="6" height="13" fill="#0071fc">
    <animate attributeName="opacity" values="1;0" keyTimes="0;1" dur="1.0869565217391304s" begin="0s" repeatCount="indefinite"></animate>
  </rect>
</g><g></g></g><!-- [ldio] generated by https://loading.io --></svg>